Santiago Alvarez, founder of the Cuban film school and for years director of Noticiero ICAIC, toured various regions of the world to portray the events and significant personalities of the second half of the twentieth century. April in the Year of the Cat was a portrayal of the long struggle of the Vietnamese people for their independence in various historical periods, also covering its rich cultural tradition, in the soundtrack as well as the images. This film is itself an important witness to the final victory of the North Vietnamese Army, the U.S. withdrawal and the country's reunification after the fall of Saigon in the days of April 1975. 

   General
      Complete name : Abril de Vietnam en el año del gato.avi
      Format : AVI
      Format/Info : Audio Video Interleave
      File size : 1.49 GiB
      Duration : 2h 2mn
      Overall bit rate : 1 733 Kbps
      Writing application : FairUse Wizard - http://fairusewizard.com
      Writing library : The best and REALLY easy backup tool
   Video #0
      ID : 0
      Format : MPEG-4 Visual
      Format profile : AdvancedSimple@L5
      Format settings, BVOP : Yes
      Format settings, QPel : No
      Format settings, GMC : No warppoints
      Format settings, Matrix : Default (MPEG)
      Muxing mode : Packed bitstream
      Codec ID : XVID
      Codec ID/Hint : XviD
      Duration : 2h 2mn
      Bit rate : 1 532 Kbps
      Width : 624 pixels
      Height : 400 pixels
      Display aspect ratio : 1.560
      Frame rate : 23.976 fps
      Resolution : 24 bits
      Colorimetry : 4:2:0
      Scan type : Progressive
      Bits/(Pixel*Frame) : 0.256
      Stream size : 1.32 GiB (88%)
      Writing library : XviD 1.2.1 (UTC 2008-12-04)
   Audio #1
      ID : 1
      Format : AC-3
      Format/Info : Audio Coding 3
      Codec ID : 2000
      Duration : 2h 2mn
      Bit rate mode : Constant
      Bit rate : 192 Kbps
      Channel(s) : 2 channels
      Channel positions : L R
      Sampling rate : 48.0 KHz
      Stream size : 169 MiB (11%)
      Alignment : Split accross interleaves
      Interleave, duration : 42 ms (1.00 video frame)
      Interleave, preload duration : 500 ms
 
http://www.imdb.com/title/tt0149580/

Spanish audio; multilanguage subpack (English, German, French, Italian, Spanish and Portuguese)

My rip

Santiago Alvarez - Abril de Vietnam en el ano del gato (1975)